PathFileType	4	(X/Y/Z)	 s02c0201.trc
DataRate	CameraRate	NumFrames	NumMarkers	Units	OrigDataRate	OrigDataStartFrame	OrigNumFrames
200	200	6	51	mm	200	1001	2000
Frame#	Time	racr			lacr			c7			jug			rlel			rdr			llel			ldr			s2			lic			ric			lasi			rasi			rpsi			lpsi			rgt			lgt			rth1			rth2			rth3			rth4			rlfc			rmfc			rsh1			rsh2			rsh3			rsh4			rlmal			rmmal			rcal			rtoe			rmt5			rmt1			lth1			lth2			lth4			lth3			llfc			lmfc			lsh1			lsh2			lsh3			lsh4			llmal			lmmal			lcal			ltoe			lmt5			SBIKE			LBIKE			RBIKE			
		X1	Y1	Z1	X2	Y2	Z2	X3	Y3	Z3	X4	Y4	Z4	X5	Y5	Z5	X6	Y6	Z6	X7	Y7	Z7	X8	Y8	Z8	X9	Y9	Z9	X10	Y10	Z10	X11	Y11	Z11	X12	Y12	Z12	X13	Y13	Z13	X14	Y14	Z14	X15	Y15	Z15	X16	Y16	Z16	X17	Y17	Z17	X18	Y18	Z18	X19	Y19	Z19	X20	Y20	Z20	X21	Y21	Z21	X22	Y22	Z22	X23	Y23	Z23	X24	Y24	Z24	X25	Y25	Z25	X26	Y26	Z26	X27	Y27	Z27	X28	Y28	Z28	X29	Y29	Z29	X30	Y30	Z30	X31	Y31	Z31	X32	Y32	Z32	X33	Y33	Z33	X34	Y34	Z34	X35	Y35	Z35	X36	Y36	Z36	X37	Y37	Z37	X38	Y38	Z38	X39	Y39	Z39	X40	Y40	Z40	X41	Y41	Z41	X42	Y42	Z42	X43	Y43	Z43	X44	Y44	Z44	X45	Y45	Z45	X46	Y46	Z46	X47	Y47	Z47	X48	Y48	Z48	X49	Y49	Z49	X50	Y50	Z50	X51	Y51	Z51	
1001	5.0050	552.948251	1238.226506	-146.551556	563.431001	1240.522868	-467.966277	535.695158	1285.781864	-314.169397	474.596092	1156.220002	-311.602669	545.736147	996.075824	-26.683856	702.255958	885.122146	-105.966843	512.872802	989.765200	-602.194055	693.723810	892.813817	-516.682226	4.988913	1115.001412	-323.953811	149.527212	1111.883869	-465.782053	124.947585	1132.844817	-182.465072	183.884800	1080.724861	-434.422371	178.688871	1105.170048	-203.269489	32.736783	1167.478707	-284.924165	41.152127	1178.026815	-368.004408	115.263069	1066.539345	-133.949264	87.779497	1015.056797	-490.579780	196.837212	1059.141626	-137.249268	284.325828	1061.772641	-145.546871	361.555990	1033.428064	-120.661887	290.621668	1084.547097	-175.364261	493.521766	963.162669	-151.606115	482.339604	938.183139	-264.966062	458.647504	858.191926	-139.432133	420.975453	779.764079	-156.521118	352.754295	726.886477	-152.644345	432.766482	773.043995	-194.486935	266.468394	637.995391	-156.654890	283.828811	649.427868	-237.388472	182.092869	632.968185	-201.124207	413.092267	463.555164	-184.938795	313.269318	514.949709	-132.240684	345.965891	505.893520	-236.980408	173.216636	902.043120	-511.837017	227.623707	833.860261	-513.460823	259.528463	847.746794	-499.839681	238.847379	745.514416	-511.070730	281.924292	656.415661	-487.295933	286.161861	626.209752	-387.361478	265.495238	556.330344	-511.125950	277.849361	472.133860	-497.791043	243.001724	387.958119	-498.911560	297.280357	472.072459	-461.447609	221.810647	284.791883	-486.589577	234.344495	280.303263	-409.622008	150.217757	259.567010	-450.674670	410.386842	133.684659	-434.017346	308.545193	153.413883	-503.604349	-162.605512	860.445570	-310.679029	37.408508	86.421953	-514.297880	33.955114	83.232052	-114.234971	
1002	5.0100	551.040152	1238.758728	-144.466247	565.120383	1239.482419	-465.276476	535.816873	1285.298582	-311.910427	474.434975	1155.862596	-309.372590	545.052586	995.668053	-26.533046	702.144397	885.312910	-106.012572	513.933803	990.943849	-603.044273	693.718875	892.882945	-516.860108	4.802037	1116.195752	-325.648635	149.535893	1112.434994	-466.633901	124.422384	1134.514433	-183.435042	183.353398	1081.119907	-434.857838	178.233502	1106.857469	-204.052506	32.548393	1168.847224	-286.578925	40.648483	1179.453388	-369.603697	115.350504	1069.137358	-134.873044	86.772340	1015.652528	-491.424535	196.174915	1061.536385	-137.634028	283.786227	1063.919892	-144.933230	360.799877	1034.969107	-119.488881	290.386645	1086.575608	-174.999897	492.887279	965.594402	-150.483209	482.981052	941.027923	-264.313999	460.046461	861.579322	-138.149838	424.641133	781.927951	-155.539773	357.412922	727.695532	-152.035409	436.783776	775.343868	-193.489303	272.117033	636.327610	-156.421527	289.494931	647.921117	-237.039623	187.936548	628.628294	-200.936759	424.155034	466.885213	-184.857556	322.690844	515.028618	-131.838960	355.534801	507.302218	-236.697923	172.098745	902.867756	-512.450744	226.457277	834.612319	-514.381034	258.527248	848.580825	-501.121270	237.797116	746.300051	-511.823246	281.434117	657.221044	-487.651259	286.146373	627.496590	-387.378812	263.572916	557.639757	-511.047432	274.281160	473.000056	-497.523144	237.691351	389.680089	-498.701133	293.758756	472.492053	-461.658245	214.307796	287.069824	-486.255122	227.337518	282.147184	-408.953006	142.276151	263.271231	-450.112974	399.584290	131.957000	-434.117076	298.095286	153.797326	-503.420780	-162.583208	859.887329	-312.321719	37.402501	86.423206	-514.306865	33.953243	83.229203	-114.235759	
1003	5.0150	549.185010	1238.938253	-142.513844	566.790552	1238.211287	-462.511938	535.869318	1284.587606	-309.640986	474.327016	1155.218016	-307.228739	544.255222	995.100624	-26.225864	701.978143	885.511296	-106.067780	514.902576	991.950673	-603.844023	693.709228	892.919715	-517.070953	4.579383	1117.503684	-325.807724	148.464161	1112.978819	-466.324767	123.879228	1136.187112	-184.287946	182.714620	1081.789858	-435.624821	177.703180	1108.627983	-205.035430	32.301831	1170.414295	-288.142038	40.049031	1181.152920	-371.115531	115.207370	1071.660736	-135.789401	85.822652	1016.239112	-492.208082	195.452854	1063.282120	-138.078969	283.191251	1065.111408	-144.621306	359.762531	1035.317164	-118.804231	290.098308	1087.921777	-174.445822	491.508531	966.565515	-149.121428	483.469712	942.477902	-263.694043	461.273528	863.269589	-136.949180	427.681351	782.633678	-154.465967	361.391022	727.221139	-151.304082	440.151440	776.419321	-192.335105	277.454206	633.263511	-156.216983	294.545932	645.333259	-236.555361	193.224901	623.147134	-200.520505	434.978795	469.970882	-185.085967	331.880221	514.453918	-131.466653	365.572092	508.091608	-237.183743	171.358864	903.792287	-512.965493	226.000301	835.811765	-515.095841	257.978148	849.934680	-502.204074	237.664086	747.552456	-512.347791	281.716114	658.677491	-487.916202	287.012795	629.287317	-387.264260	262.659948	559.301724	-510.946065	271.116072	474.448131	-497.003380	232.826481	392.032497	-498.400105	290.771005	473.483560	-461.281636	206.798198	290.004677	-485.900638	220.267555	284.741622	-408.419597	134.353692	267.525506	-449.412716	388.918979	131.109719	-434.315506	287.613347	154.943938	-503.205106	-162.602879	860.555519	-310.462226	37.387064	86.451837	-514.314456	33.935082	83.248001	-114.246258	
1004	5.0200	547.319584	1238.818666	-140.661988	568.239782	1236.583039	-459.944927	535.866208	1283.770011	-307.568314	473.782738	1154.648937	-305.312929	543.379468	994.422327	-25.841547	701.795979	885.573818	-106.179801	515.806835	992.660561	-604.642736	693.607756	892.933259	-517.527717	4.202171	1118.789092	-326.864131	148.876047	1114.132858	-468.520513	123.234702	1137.846923	-185.186288	181.997905	1082.444564	-436.375687	177.062111	1110.345561	-205.963152	31.954996	1172.055236	-289.555540	39.523762	1183.035406	-372.484557	114.903560	1073.732296	-136.823254	84.924226	1016.919560	-492.987034	194.732369	1064.480507	-138.658623	282.491232	1065.215773	-144.536296	358.590875	1034.541643	-118.320238	289.871018	1088.354575	-173.999983	489.407328	966.087992	-148.607473	483.757044	942.525748	-263.045998	461.908243	863.259543	-135.801715	430.008847	781.939156	-153.289235	364.727242	725.421547	-150.500880	442.852754	775.749940	-191.293663	282.229249	629.078231	-155.925079	298.994984	641.664484	-235.984910	197.917710	616.173864	-199.988780	445.397923	472.775023	-185.116055	340.665884	513.111713	-131.015881	373.756239	508.158849	-236.410043	171.096419	905.072290	-513.450224	226.147104	837.357032	-515.688175	258.130194	851.770814	-503.144192	238.455491	749.217608	-512.610578	282.917082	660.521555	-488.063275	288.796509	631.479881	-387.214939	262.466797	561.327746	-510.755282	268.653824	476.225075	-496.541682	228.397074	394.899940	-498.088295	288.354639	474.889510	-460.953767	199.279888	293.564329	-485.423474	213.095311	287.977717	-407.998504	126.556021	272.354997	-448.436721	378.345039	131.159678	-434.636024	277.196208	156.824947	-502.944669	-162.583392	860.681969	-309.754644	37.382827	86.454277	-514.296567	33.925203	83.239543	-114.236703	
1005	5.0250	545.515380	1238.496231	-138.868326	569.637454	1234.802676	-457.270967	535.798081	1282.901162	-305.614527	473.222678	1154.006440	-303.585902	542.371925	993.609044	-25.432494	701.523073	885.642935	-106.124997	516.597834	993.305691	-605.440022	693.657932	892.983347	-517.729794	3.022702	1120.082004	-327.830806	148.294688	1115.176360	-469.400512	122.529564	1139.438519	-186.157169	181.292668	1083.283574	-437.371518	176.509341	1111.989270	-206.700311	31.485287	1173.880904	-290.827705	39.255306	1184.727423	-373.962595	114.577459	1075.392722	-138.048534	84.126082	1017.730570	-493.777286	194.128807	1065.069646	-138.834729	281.825670	1064.668429	-144.444631	357.331126	1032.798375	-118.027483	289.724070	1088.153572	-173.505745	489.681882	965.315858	-148.249981	483.654926	941.156340	-262.622580	461.852613	861.557767	-134.720126	431.596989	779.634168	-152.330085	367.205717	721.794654	-149.645751	444.900966	773.533886	-190.154259	286.551504	623.640119	-155.495793	302.851272	636.862451	-235.407824	202.309554	607.694604	-199.250026	455.535078	475.337724	-184.952283	349.124782	511.073342	-130.352564	382.332386	507.673613	-235.940643	171.262669	906.367471	-513.975254	226.966116	839.129310	-516.129522	258.835448	853.973556	-503.873013	240.177565	751.198836	-512.665646	284.976482	662.598401	-488.036816	291.393216	633.844041	-386.977661	263.002860	563.686947	-510.446321	266.738680	478.466653	-495.940940	224.407680	398.237392	-497.588312	286.598522	476.815479	-460.174563	191.948482	297.829853	-484.864273	206.086837	291.802536	-407.435646	118.919649	277.906310	-447.244915	367.717816	131.787928	-435.005635	266.741252	159.297527	-502.643819	-162.587008	860.598712	-309.431375	37.377946	86.479871	-514.290983	33.930862	83.267109	-114.225639	
1006	5.0300	543.712225	1237.966278	-137.173489	570.853287	1232.808049	-454.694625	535.712266	1281.863296	-303.775054	472.442712	1153.296986	-301.963145	541.235428	992.688111	-25.021125	701.215194	885.676667	-106.046745	517.296347	993.795315	-606.261884	693.726047	892.965342	-517.848854	2.773661	1121.362030	-328.840521	147.858934	1116.348499	-470.551525	121.921160	1140.844293	-186.993430	180.570764	1084.215244	-438.505222	175.857319	1113.426507	-207.511307	31.204432	1175.505593	-292.081603	38.562159	1186.478003	-374.938345	114.037243	1076.710201	-139.183712	83.508243	1018.548756	-494.683267	193.481741	1065.268871	-139.107703	281.222783	1063.655514	-144.284945	356.040695	1030.403183	-117.875615	289.645125	1087.339915	-173.006688	488.333031	962.734960	-147.942323	483.022726	938.256747	-262.344189	461.347432	858.119771	-134.093282	432.520912	775.712644	-151.374514	369.269192	716.756599	-148.916534	446.248310	769.743427	-189.099794	290.584012	617.004524	-155.014769	306.175339	630.683669	-234.834567	206.226030	597.789496	-198.550028	465.277537	477.590789	-184.890725	357.209293	507.996361	-129.488477	391.010366	506.889512	-235.972230	171.899653	907.784258	-514.458210	228.380685	841.231531	-516.370822	260.092459	856.464130	-504.292286	242.690824	753.435311	-512.567347	287.945868	665.064630	-487.939481	294.639473	636.583568	-386.688842	264.237159	566.423428	-509.972340	265.364451	481.221924	-495.327813	220.838098	402.212484	-496.972872	285.172765	479.039830	-459.500406	184.888175	302.740925	-484.240761	199.349805	296.207179	-406.778804	111.500630	284.161484	-446.076681	357.169404	133.069692	-435.285712	256.414553	162.479553	-502.237672	-162.593347	860.596210	-309.204210	37.367914	86.485223	-514.291284	33.921078	83.267517	-114.220582	
